# AST/ASF file generated using VICON BodyLanguage
# -----------------------------------------------
:version 1.10
:name VICON
:units
  mass 1.0
  length 0.45
  angle deg
:documentation
   .ast/.asf automatically generated from VICON data using
   VICON BodyBuilder and BodyLanguage model FoxedUp or BRILLIANT.MOD
:root
   order TX TY TZ RX RY RZ
   axis XYZ
   position 0 0 0  
   orientation 0 0 0 
:bonedata
  begin
     id 1 
     name lhipjoint
     direction 0.710188 -0.616876 0.339259 
     length 2.5669 
     axis 0 0 0  XYZ
  end
  begin
     id 2 
     name lfemur
     direction 0.34202 -0.939693 0  
     length 7.12796  
     axis 0 0 20  XYZ
    dof rx ry rz
    limits (-160.0 20.0)
           (-70.0 70.0)
           (-60.0 70.0)
  end
  begin
     id 3 
     name ltibia
     direction 0.34202 -0.939693 0   
     length 7.58108   
     axis 0 0 20   XYZ
    dof rx
    limits (-10.0 170.0)
  end
  begin
     id 4 
     name lfoot
     direction 0.0669471 -0.183936 0.980656   
     length 2.17365   
     axis -90 7.62852e-016 20   XYZ
    dof rx rz
    limits (-45.0 90.0)
           (-70.0 20.0)
  end
  begin
     id 5 
     name ltoes
     direction 1.53508e-011 -4.21705e-011 1   
     length 1.09427   
     axis -90 7.62852e-016 20   XYZ
    dof rx
    limits (-90.0 20.0)
  end
  begin
     id 6 
     name rhipjoint
     direction -0.700191 -0.625589 0.34405   
     length 2.53115  
     axis 0 0 0  XYZ 
  end
  begin
     id 7 
     name rfemur
     direction -0.34202 -0.939693 0   
     length 7.33006   
     axis 0 0 -20   XYZ
    dof rx ry rz
    limits (-160.0 20.0)
           (-70.0 70.0)
           (-70.0 60.0)
  end
  begin
     id 8 
     name rtibia
     direction -0.34202 -0.939693 0   
     length 7.64926   
     axis 0 0 -20   XYZ
    dof rx
    limits (-10.0 170.0)
 end
 begin
     id 9 
     name rfoot
     direction -0.0688927 -0.189281 0.979503   
     length 2.20493  
     axis -90 -7.62852e-016 -20   XYZ
    dof rx rz
    limits (-45.0 90.0)
           (-20.0 70.0)
  end
  begin
     id 10 
     name rtoes
     direction -1.53567e-011 -4.21933e-011 1   
     length 1.10919   
     axis -90 -7.62852e-016 -20   XYZ
    dof rx
    limits (-90.0 20.0)
  end
  begin
     id 11 
     name lowerback
     direction -0.0167868 0.989873 -0.140959   
     length 2.14596   
     axis 0 0 0   XYZ
    dof rx ry rz
    limits (-20.0 45.0)
           (-30.0 30.0)
           (-30.0 30.0)
  end
  begin
     id 12 
     name upperback
     direction 0.0129109 0.998033 0.0613525   
     length 2.10457   
     axis 0 0 0   XYZ
    dof rx ry rz
    limits (-20.0 45.0)
           (-30.0 30.0)
           (-30.0 30.0)
  end
  begin
     id 13 
     name thorax
     direction 0.0177047 0.991119 0.131797   
     length 2.17652   
     axis 0 0 0   XYZ
    dof rx ry rz
    limits (-20.0 45.0)
           (-30.0 30.0)
           (-30.0 30.0)
  end
  begin
     id 14 
     name lowerneck
     direction -0.0336893 0.997548 0.0613464   
     length 1.8912   
     axis 0 0 0   XYZ
    dof rx ry rz
    limits (-20.0 45.0)
           (-30.0 30.0)
           (-30.0 30.0)
  end
  begin
     id 15 
     name upperneck
     direction 0.0435909 0.997179 -0.0611028   
     length 1.8829   
     axis 0 0 0   XYZ
    dof rx ry rz
    limits (-20.0 45.0)
           (-30.0 30.0)
           (-30.0 30.0)
  end
  begin
     id 16
     name head
     direction 0.0175076 0.999444 -0.0283782  
     length 1.93197  
     axis 0 0 0   XYZ
    dof rx ry rz
    limits (-20.0 45.0)
           (-30.0 30.0)
           (-30.0 30.0)
  end
  begin
     id 17 
     name lclavicle
     direction 0.919164 0.389875 0.0559876  
     length 3.60004  
     axis 0 0 0   XYZ
    dof ry rz
    limits (-20.0 10.0)
           (0.0 20.0)
  end
  begin
     id 18 
     name lhumerus
     direction 1 -4.48958e-011 6.89191e-027   
     length 5.43301   
     axis 180 -30 -90   XYZ
    dof rx ry rz
    limits (-60.0 90.0)
           (-90.0 90.0)
           (-90.0 90.0)
  end
  begin
     id 19
     name lradius
     direction 1 -4.4897e-011 3.24727e-027   
     length 3.15936   
     axis 180 -30 -90   XYZ
    dof rx
    limits (-10.0 170.0)
  end
  begin
     id 20
     name lwrist
     direction 1 -4.4897e-011 9.00228e-027   
     length 1.57968   
     axis -6.29373e-015 90 90   XYZ
    dof ry
    limits (-180.0 0.0)
 end
  begin
     id 21 
     name lhand
     direction 1 -4.48968e-011 1.80042e-026   
     length 0.712827   
     axis -1.14882e-014 90 90   XYZ
    dof rx rz
    limits (-90.0 90.0)
           (-45.0 45.0)
  end
  begin
     id 22 
     name lfingers
     direction 1 -4.49019e-011 3.60267e-026   
     length 0.574699   
     axis -2.29769e-014 90 90   XYZ
    dof rx
    limits (0.0 90.0)
  end
  begin
     id 23
     name lthumb
     direction 0.707107 -6.3498e-011 0.707107   
     length 0.825157   
     axis -90 45 5.37419e-014   XYZ
    dof rx rz
    limits (-45.0 45.0)
           (-45.0 45.0)
  end
  begin
     id 24 
     name rclavicle
     direction -0.890334 0.455305 -0.00132111   
     length 3.51494  
     axis 0 0 0   XYZ 
    dof ry rz
    limits (-10.0 20.0)
           (-20.0 0.0)
  end
  begin
     id 25 
     name rhumerus
     direction -1 -4.48967e-011 5.07175e-028  
     length 5.34194   
     axis 180 30 90   XYZ
    dof rx ry rz
    limits (-90.0 60.0)
           (-90.0 90.0)
           (-90.0 90.0)
  end
  begin
     id 26 
     name rradius
     direction -1 -4.48955e-011 3.30467e-027   
     length 3.19351   
     axis 180 30 90   XYZ
    dof rx
    limits (-10.0 170.0)
  end
  begin
     id 27 
     name rwrist
     direction -1 -4.48968e-011 9.00208e-027   
     length 1.59676   
     axis -6.29373e-015 -90 -90   XYZ
    dof ry
    limits (-180.0 0.0)
  end
  begin
     id 28
     name rhand
     direction -1 -4.49e-011 1.80099e-026   
     length 0.743862   
     axis -1.14882e-014 -90 -90   XYZ
    dof rx rz
    limits (-90.0 90.0)
           (-45.0 45.0)
  end
  begin
     id 29
     name rfingers
     direction -1 -4.49009e-011 3.6023e-026   
     length 0.599721   
     axis -2.29769e-014 -90 -90   XYZ
    dof rx
    limits (0.0 90.0)
  end
  begin
     id 30
     name rthumb
     direction -0.707107 -6.35025e-011 0.707107   
     length 0.861083   
     axis -90 -45 -5.37419e-014   XYZ
    dof rx rz
    limits (-45.0 45.0)
           (-45.0 45.0)
  end
:hierarchy
  begin
    root lhipjoint rhipjoint lowerback
    lhipjoint lfemur
    lfemur ltibia
    ltibia lfoot
    lfoot ltoes
    rhipjoint rfemur
    rfemur rtibia
    rtibia rfoot
    rfoot rtoes
    lowerback upperback
    upperback thorax
    thorax lowerneck lclavicle rclavicle
    lowerneck upperneck
    upperneck head
    lclavicle lhumerus
    lhumerus lradius
    lradius lwrist
    lwrist lhand lthumb
    lhand lfingers
    rclavicle rhumerus
    rhumerus rradius
    rradius rwrist
    rwrist rhand rthumb
    rhand rfingers
  end

#!OML:ASF H:\Martial Arts Walks\Project 1\Capture day 1\Session 1\male.ASF
:FULLY-SPECIFIED
:DEGREES
461
root -2.32279 18.0838 -8.66365 -85.6113 -51.6425 103.003
lowerback 23.9228 6.34309 -5.02093
upperback 4.05011 5.88787 -7.18921
thorax -8.50303 2.70849 -6.94796
lowerneck -6.51892 9.49266 4.90655
upperneck 12.1313 14.1184 -13.3688
head 6.06625 6.28784 -3.86676
rclavicle 1.90833e-014 0
rhumerus 11.0609 43.7031 -42.936
rradius 92.3418
rwrist 1.49014
rhand -11.9534 -35.4956
rfingers 7.12502
rthumb 14.1019 -64.997
lclavicle 1.90833e-014 0
lhumerus -41.039 20.9443 53.3111
lradius 73.5882
lwrist 21.0726
lhand -44.6086 21.9587
lfingers 7.12502
lthumb -17.407 51.1993
rfemur -38.9599 -14.8127 -14.4483
rtibia 37.4914
rfoot -9.5292 -17.8667
rtoes 10.6109
lfemur -129.152 60.8385 -38.1894
ltibia 130.289
lfoot -22.4545 -4.28846
ltoes -6.16487
462
root -2.34106 18.0017 -8.54021 -87.6163 -52.3686 105.171
lowerback 23.6085 6.26831 -4.67896
upperback 4.0647 5.94708 -6.90228
thorax -8.31707 2.73922 -6.78998
lowerneck -6.37934 9.75447 5.05625
upperneck 11.844 14.4146 -13.252
head 5.98237 6.46699 -3.83136
rclavicle 2.38542e-014 -4.13472e-014
rhumerus 10.7061 44.4657 -43.5365
rradius 92.6516
rwrist 2.35575
rhand -11.7666 -35.252
rfingers 7.12502
rthumb 14.2819 -64.7409
lclavicle 2.38542e-014 -4.13472e-014
lhumerus -41.6209 20.4071 53.2537
lradius 74.5698
lwrist 19.6412
lhand -43.9284 20.7837
lfingers 7.12502
lthumb -16.7522 50.081
rfemur -40.7006 -16.0762 -13.0282
rtibia 39.0181
rfoot -10.0407 -15.5457
rtoes 8.43511
lfemur -129.221 59.9281 -40.5792
ltibia 131.358
lfoot -22.1771 -5.825
ltoes -7.65304
463
root -2.36408 17.9221 -8.4272 -89.9891 -52.7992 107.444
lowerback 23.9686 6.19062 -4.50191
upperback 3.91569 5.85054 -6.79717
thorax -8.67269 2.67798 -6.80025
lowerneck -6.08778 10.0651 5.2556
upperneck 11.6045 14.7563 -12.9761
head 5.88241 6.68403 -3.75758
rclavicle -5.08889e-014 1.68569e-013
rhumerus 9.89814 45.4604 -44.616
rradius 93.0402
rwrist 3.45691
rhand -11.6284 -34.8391
rfingers 7.12502
rthumb 14.4151 -64.3185
lclavicle -5.08889e-014 1.68569e-013
lhumerus -42.488 19.7297 52.8299
lradius 75.6733
lwrist 18.5699
lhand -43.1733 20.0675
lfingers 7.12502
lthumb -16.0253 49.4248
rfemur -42.1569 -17.103 -11.8946
rtibia 40.505
rfoot -10.741 -13.2337
rtoes 7.24378
lfemur -127.244 59.073 -41.5157
ltibia 131.726
lfoot -21.7641 -7.14653
ltoes -9.17641
464
root -2.38639 17.8393 -8.31035 -92.8516 -53.7577 110.077
lowerback 24.2264 6.11679 -3.80749
upperback 3.94387 5.93597 -6.54096
thorax -8.72582 2.70107 -6.95378
lowerneck -5.85953 10.3385 5.38979
upperneck 11.1983 15.0404 -12.7246
head 5.73328 6.87254 -3.68787
rclavicle -5.08889e-014 1.59028e-014
rhumerus 9.08498 46.1378 -45.7395
rradius 93.4126
rwrist 4.67062
rhand -11.2746 -34.4963
rfingers 7.12502
rthumb 14.7559 -63.9511
lclavicle -5.08889e-014 1.59028e-014
lhumerus -42.9586 19.1414 52.5253
lradius 76.7103
lwrist 18.1489
lhand -42.5783 19.0321
lfingers 7.12502
lthumb -15.4522 48.4345
rfemur -43.4663 -17.6698 -10.1525
rtibia 41.9328
rfoot -11.4939 -11.0617
rtoes 6.42884
lfemur -124.861 58.6537 -41.2201
ltibia 131.608
lfoot -21.3872 -8.71367
ltoes -10.5729
465
root -2.42159 17.7549 -8.19717 -95.8565 -54.5454 112.9
lowerback 24.4019 6.14974 -3.26688
upperback 3.9211 6.12893 -6.30712
thorax -8.79579 2.77949 -7.07576
lowerneck -5.68058 10.5469 5.44723
upperneck 10.9906 15.2542 -12.3996
head 5.63571 7.01572 -3.58784
rclavicle -1.59028e-015 3.18055e-014
rhumerus 7.91255 46.7895 -46.8508
rradius 93.9285
rwrist 5.01622
rhand -11.4211 -34.2472
rfingers 7.12502
rthumb 14.6148 -63.7122
lclavicle -1.59028e-015 3.18055e-014
lhumerus -43.3889 18.3937 52.3955
lradius 77.8819
lwrist 18.1092
lhand -42.2293 18.888
lfingers 7.12502
lthumb -15.116 48.316
rfemur -44.6972 -18.0752 -8.5475
rtibia 43.2602
rfoot -12.0897 -9.47264
rtoes 5.01754
lfemur -121.532 58.3397 -40.0963
ltibia 130.936
lfoot -21.2118 -10.0908
ltoes -11.8333
466
root -2.45318 17.6711 -8.08645 -98.9209 -55.2598 115.685
lowerback 24.6545 6.14454 -2.7575
upperback 3.94975 6.26068 -6.04937
thorax -8.85784 2.82748 -7.13907
lowerneck -5.25114 10.6317 5.57509
upperneck 10.3954 15.2935 -12.3498
head 5.3872 7.08517 -3.62111
rclavicle 3.81667e-014 -2.22639e-014
rhumerus 6.76729 47.4298 -47.9656
rradius 94.3858
rwrist 5.2393
rhand -11.5534 -34.1686
rfingers 7.12502
rthumb 14.4873 -63.6428
lclavicle 3.81667e-014 -2.22639e-014
lhumerus -43.762 17.7942 52.2809
lradius 79.1091
lwrist 18.8511
lhand -41.9247 18.0529
lfingers 7.12502
lthumb -14.8226 47.5028
rfemur -45.7022 -18.2853 -7.05601
rtibia 44.4341
rfoot -12.622 -7.76884
rtoes 4.13575
lfemur -117.312 57.8153 -38.0381
ltibia 129.746
lfoot -20.87 -11.6943
ltoes -12.8539
467
root -2.48628 17.5927 -7.98181 -102.397 -55.8158 118.407
lowerback 25.5215 6.1481 -2.35497
upperback 4.03124 6.32557 -5.75846
thorax -9.19779 2.8288 -7.15636
lowerneck -4.99904 10.8936 5.51854
upperneck 10.192 15.6109 -12.1406
head 5.28939 7.2687 -3.53617
rclavicle 6.04305e-014 4.13472e-014
rhumerus 5.56482 48.0811 -49.0932
rradius 94.8562
rwrist 4.93348
rhand -11.6132 -34.2605
rfingers 7.12502
rthumb 14.4297 -63.7389
lclavicle 6.04305e-014 4.13472e-014
lhumerus -44.1109 17.3276 52.177
lradius 80.3838
lwrist 19.7688
lhand -42.096 17.6197
lfingers 7.12502
lthumb -14.9876 47.0573
rfemur -46.0272 -18.2579 -5.82404
rtibia 45.4519
rfoot -13.1972 -6.16992
rtoes 3.67281
lfemur -111.663 57.3531 -34.8593
ltibia 128.053
lfoot -20.5814 -13.4127
ltoes -13.7405
